<?xml version="1.0" encoding="utf-8"?>
<!-- Generator: Adobe Illustrator 16.0.0, SVG Export Plug-In . SVG Version: 6.00 Build 0)  -->
<!DOCTYPE svg PUBLIC "-//W3C//DTD SVG 1.1//EN" "http://www.w3.org/Graphics/SVG/1.1/DTD/svg11.dtd">
<svg version="1.1" xmlns="http://www.w3.org/2000/svg" xmlns:xlink="http://www.w3.org/1999/xlink" x="0px" y="0px" width="128px"
	 height="128px" viewBox="0 0 128 128" enable-background="new 0 0 128 128" xml:space="preserve">
<g id="Layer_2">
	<rect y="0" fill="#1E8EBE" width="128" height="128"/>
</g>
<g id="Layer_1">
	<g>
		<path fill="#FFFFFF" d="M61.042,12.869l0.329,0.292C61.35,12.87,61.042,12.869,61.042,12.869z"/>
		<path fill="#FFFFFF" d="M97.564,106.203V65.218l-20.291-7.305v51.537c-8.115,0.406-14.203,0-14.203,0l-1.217-70.609l57.624,25.972
			L61.371,13.161c0.054,0.762-1.875,3.519-16.561,13.506V16.521l8.116,2.841l-7.304-6.493L28.577,30.318v10.957
			c-8.116,9.333-15.826,13.392-20.29,17.855C-2.263,70.899-2.669,84.696,6.664,95.247c8.117,8.928,26.783,19.884,56.407,19.884
			c27.595,0,53.566-12.174,64.93-26.782C120.695,96.059,109.738,101.74,97.564,106.203z M24.52,96.464
			c-16.232-6.087-13.392-17.854-8.928-25.159c4.463-7.305,8.928-8.521,8.928-8.521V96.464z M48.868,79.42l-16.233,3.652V64
			l16.233-6.087V79.42z"/>
	</g>
</g>
</svg>
