<?xml version="1.0" encoding="UTF-8"?>
<svg viewBox="0 0 93 40" version="1.1" xmlns="http://www.w3.org/2000/svg" xmlns:xlink="http://www.w3.org/1999/xlink">
    <!-- Generator: Sketch 51.2 (57519) - http://www.bohemiancoding.com/sketch -->
    <title>logo zap</title>
    <desc>Created with Sketch.</desc>
    <defs>
        <polygon id="path-1" points="0.0436584679 0.0137197949 23.1188296 0.0137197949 23.1188296 27.8437736 0.0436584679 27.8437736"></polygon>
        <polygon id="path-3" points="0 0.0915471803 28.80372 0.0915471803 28.80372 34.7757297 0 34.7757297"></polygon>
    </defs>
    <g id="Symbols" stroke="none" stroke-width="1" fill="none" fill-rule="evenodd">
        <g id="Logos-/-1.1.-Zap">
            <g id="logo-zap">
                <path d="M48.4535274,13.1840418 L39.29055,24.8773487 L46.0607992,24.8773487 L44.8841472,30.5366051 L29.246326,30.5366051 L29.3934213,29.8243612 L38.8120485,17.7203781 L32.5945111,17.7203781 C32.9986919,15.9583282 33.2565504,14.2333979 33.6626085,12.4726978 L48.6005123,12.4726978 L48.4535274,13.1840418 Z" id="Fill-1" fill="#FF5A00"></path>
                <path d="M62.8952142,17.4103834 C62.1159983,17.2206292 61.4134029,17.1067087 60.7095843,17.1435487 C58.4852549,17.2590561 56.7809217,18.7309545 56.00393,21.4503109 C55.4469024,23.8674662 56.1520555,25.3404982 58.225924,25.3020713 C60.1166374,25.3020713 61.3376721,23.642119 61.9323983,21.3754975 L62.8952142,17.4103834 Z M69.6750707,13.7071165 L67.3418713,24.8509234 C67.0440633,26.3213482 67.1561583,27.1518911 68.7488413,27.1518911 L68.0446891,30.6269769 C65.711156,31.1196123 60.9303269,31.6090738 61.6352576,27.9080739 C60.2638732,29.9103545 57.9294506,30.9666981 55.818217,30.9666981 C50.2600625,30.855158 48.7039661,26.5495293 49.7795442,21.2988703 C51.2610218,15.0299547 56.1520555,11.9327903 62.1895051,12.0455772 C64.8585446,12.0840042 67.4515197,12.6878396 69.6750707,13.7071165 Z" id="Fill-3" fill="#FF5A00"></path>
                <g id="Group-7" transform="translate(69.244978, 12.042605)">
                    <mask id="mask-2" fill="white">
                        <use xlink:href="#path-1"></use>
                    </mask>
                    <g id="Clip-6"></g>
                    <path d="M10.2207951,10.6744046 C10.1082167,12.3212291 10.7936409,13.5922749 12.2806145,13.5922749 C15.1387797,13.5922749 16.778146,11.1241714 16.892555,8.4306231 C17.0059343,6.67332171 16.2438561,5.43775426 14.3769303,5.55070118 C11.8224065,5.55070118 10.336005,8.13220072 10.2207951,10.6744046 Z M10.6787743,3.00771137 C12.0894371,1.09794287 14.3769303,0.0137197949 16.5108866,0.0137197949 C22.2670314,0.125094889 23.7155635,4.91355031 22.9158447,9.59029381 C21.8849054,14.377851 18.3027601,18.9410863 12.8905288,18.9410863 C10.9841319,18.9410863 8.92591428,18.3065177 8.54504677,16.4362694 L6.06614734,27.8437961 L0.0436584679,27.8437961 L4.73145214,6.1107203 C5.0378394,4.72841167 5.3053276,4.01671134 3.70394506,4.01671134 L4.46522244,0.538036016 C6.79127147,0.051780437 11.5170489,-0.509810513 10.7169869,2.85670381 L10.6787743,3.00771137 Z" id="Fill-5" fill="#FF5A00" mask="url(#mask-2)"></path>
                </g>
                <path d="M3.45927181,21.5932631 C3.64363826,22.9247495 2.90112285,24.1888274 2.22615985,25.2741262 C1.57846468,26.3130959 0.821698187,27.5263356 0.872418599,28.8182561 C0.953436601,30.8585459 2.46854058,31.1700001 3.14182038,31.1700001 C3.18883776,31.1700001 3.2313666,31.1669566 3.26940691,31.1652657 C5.08367155,31.04623 8.3078963,28.3150598 10.8219231,27.73059 C10.7186868,25.9253281 10.4542001,24.2841912 9.8889817,23.2888454 C8.80387909,21.382358 5.91528431,20.5274654 2.82863306,19.9200001 C3.13755628,20.4297344 3.37410192,20.9762164 3.45927181,21.5932631 Z" id="Fill-8" fill="#00AEC8"></path>
                <path d="M16.7422496,16.3231226 C14.8294623,20.5748633 19.5513197,25.799802 24.3434405,31.3400836 C24.4083503,30.5976891 24.3969671,29.8772628 24.159963,29.1354377 C23.8716968,28.2314203 23.4062323,27.4147635 22.973722,26.5815914 C22.537772,25.7390795 22.1176889,24.8854055 21.7994643,23.9886776 C21.4914478,23.1212218 21.2827377,22.2064979 21.2888403,21.2779922 C21.2959416,20.3812643 21.5234034,19.5221231 21.906094,18.7193621 C23.1917525,16.0233696 25.7740542,14.3365234 27.3668415,11.8669624 C27.4208776,11.7825632 27.575744,11.3021245 27.6282267,11.2163585 C24.121028,11.2163585 18.6276306,12.1355071 16.7422496,16.3231226 Z" id="Fill-10" fill="#FF5A00"></path>
                <g id="Group-14">
                    <mask id="mask-4" fill="white">
                        <use xlink:href="#path-3"></use>
                    </mask>
                    <g id="Clip-13"></g>
                    <path d="M28.0524122,3.03230868 C27.4776572,1.77624078 26.4917384,0.747687919 25.1615946,0.321407268 C24.6673457,0.163680045 24.1589691,0.0915246317 23.650256,0.0915246317 C22.7970937,0.0915246317 21.9415768,0.293447045 21.1444772,0.626940345 C18.7678667,1.62234682 17.3845754,3.57110668 16.4662683,5.8132234 C14.4249129,10.7951037 14.6757374,17.2234745 11.4108694,17.8496482 C11.1865065,17.8924905 10.9698802,17.9127842 10.7608784,17.9127842 C8.73701455,17.9127842 7.37435432,16.032572 5.98926901,14.7921753 C5.05122775,13.9493099 3.86124066,13.1581935 2.58289875,13.048382 C2.49645005,13.0409409 2.41044985,13.0369949 2.32501028,13.0369949 C1.2880744,13.0369949 0.389949785,13.5869545 0.08014725,14.6666926 C0.000986703492,14.9423488 -0.024241516,15.3302969 0.0257664213,15.6189185 C0.078801745,15.9218585 0.202251832,16.2246858 0.344987492,16.495945 C0.697061311,17.1659757 1.17707023,17.7617088 1.64642724,18.3519176 C2.05108788,18.8581329 2.47010058,19.3662648 2.80501921,19.918141 C5.88914101,20.5257121 8.7755857,21.3807538 9.85972638,23.2875733 C10.4246142,24.2830925 10.6888939,25.9246281 10.7920492,27.7300919 C11.0935545,27.6601913 11.3850806,27.621746 11.6618061,27.621746 C11.9590506,27.621746 12.2397005,27.6654902 12.4998315,27.7656059 C14.3228787,28.4644987 17.0242043,32.635758 17.7295854,33.4595699 C18.230786,34.0444797 19.200783,34.7757297 20.4321444,34.7757297 C21.2555934,34.7757297 22.1962136,34.4501284 23.1926722,33.5351076 C23.930009,32.8601163 24.2885861,31.9974081 24.3704376,31.082951 C19.527965,25.5989141 15.1541766,20.9218904 17.0869946,16.7132005 C18.9923418,12.5680975 23.5847748,12.2227662 27.4847212,11.4995209 C27.6220748,11.2765156 27.7496735,11.0479859 27.8666203,10.8137063 C28.6149454,9.30960413 28.9269904,7.48722898 28.7596993,5.74625415 C28.6685413,4.79583207 28.4352083,3.87021342 28.0524122,3.03230868 Z" id="Fill-12" fill="#007BA8" mask="url(#mask-4)"></path>
                </g>
            </g>
        </g>
    </g>
</svg>
