<?xml version="1.0" encoding="UTF-8" standalone="no"?>
<svg xmlns="http://www.w3.org/2000/svg" height="24px" width="143px" version="1.1" xmlns:xlink="http://www.w3.org/1999/xlink" viewBox="0 0 143 24"><!-- Generator: Sketch 51 (57462) - http://www.bohemiancoding.com/sketch -->
 <title>Logos / 8.2 GrupoZAP negative@svg</title>
 <desc>Created with Sketch.</desc>
 <defs>
  <path id="path-1" d="m0.35378 3.5042l-0.0271 0.0542c-0.22343 0.4453-0.28196 0.7096-0.28231 1.0579-0.000859 1.2299 1.0525 2.285 2.3174 2.286 0.7962 0.0005 1.4269-0.3021 1.8853-1.0054 0.5629-0.8011 1.7111-2.7355 4.8919-2.7094 2.799 0.0024 4.264 1.6645 4.659 2.3425-0.003-0.0048-2.963-5.3698-7.4105-5.3706-1.8-0.00038-3.843 0.8776-6.0337 3.3448"/>
  <linearGradient id="linearGradient-3" y1="49.999%" x2="99.815%" x1="6.0717%" y2="49.999%">
   <stop stop-color="#fff" offset="0"/>
   <stop stop-color="#fff" stop-opacity="0" offset="1"/>
  </linearGradient>
  <polygon id="path-4" points="0.12364 0.12078 14.857 0.12078 14.857 21.925 0.12364 21.925"/>
  <polygon id="path-6" points="0.000069065 0.094999 14.395 0.094999 14.395 23.482 0.000069065 23.482"/>
 </defs>
 <g id="Logos-/-8.2-GrupoZAP-negative" fill-rule="evenodd" fill="none">
  <g id="Group">
   <path id="Fill-1" fill="#fff" d="m123.88 14.047l-6.53-12.397c-0.46-0.94875-1.26-1.4766-2.18-1.4773-0.95-0.00083-1.72 0.52544-2.18 1.4737l-6.54 12.386c-0.03 0.052-0.06 0.103-0.08 0.152-0.01 0.007-0.01 0.014-0.01 0.021l0.01-0.02c7.6-8.5641 13.44 2.019 13.44 2.025v-0.001 0.002c0.08 0.13 0.11 0.204 0.11 0.204 0.46 0.801 1.13 1.178 2.02 1.179 1.23 0.001 2.29-1.052 2.29-2.282 0-0.386-0.11-0.738-0.35-1.265"/>
   <g id="Group-5" transform="translate(106.01 10.681)">
    <mask id="mask-2" fill="white">
     <use xlink:href="#path-1"/>
    </mask>
    <path id="Fill-3" fill="url(#linearGradient-3)" mask="url(#mask-2)" d="m0.35378 3.5042l-0.0271 0.0542c-0.22343 0.4453-0.28196 0.7096-0.28231 1.0579-0.000859 1.2299 1.0525 2.285 2.3174 2.286 0.7962 0.0005 1.4269-0.3021 1.8853-1.0054 0.5629-0.8011 1.7111-2.7355 4.8919-2.7094 2.799 0.0024 4.264 1.6645 4.659 2.3425-0.003-0.0048-2.963-5.3698-7.4105-5.3706-1.8-0.00038-3.843 0.8776-6.0337 3.3448"/>
   </g>
   <g id="Group-22" transform="translate(0 .14814)">
    <path id="Fill-6" fill="#fff" d="m103.89 15.251c0 1.163-0.91 2.071-2.11 2.069l-9.771-0.008c-1.163-0.001-2.07-0.91-2.069-2.072 0-0.618 0.218-0.941 0.837-1.78l6.501-9.2002-5.099-0.0043c-1.199-0.001-2.106-0.8738-2.105-2.0728 0.001-1.1992 0.91-2.0626 2.109-2.0616l9.567 0.00001c1.2 0.00103 2.11 0.87418 2.11 2.0367 0 0.6905-0.31 1.1035-0.7 1.6709l-6.744 9.3453 5.374 0.004c1.19 0.002 2.1 0.874 2.1 2.073"/>
    <g id="Group-10" transform="translate(127.08)">
     <mask id="mask-5" fill="white">
      <use xlink:href="#path-4"/>
     </mask>
     <path id="Fill-8" fill="#fff" mask="url(#mask-5)" d="m6.8098 0.12078h-4.6622c-1.148 0.07338-2.0229 0.98022-2.024 2.1526l0.00004 17.309c-0.00103 1.342 1.0046 2.341 2.3584 2.343 1.3187 0.001 2.3263-0.997 2.3273-2.339v-2.266h-0.001 0.001c0.0004-0.404 0.3314-0.732 0.7363-0.732h1.2502c4.5992-0.02 8.0572-3.671 8.0612-8.2421 0.004-4.5816-3.464-8.213-8.0472-8.2251"/>
    </g>
    <path id="Fill-11" fill="#fff" d="m49.253 13.844c0.159 0.114 0.376 0.268 0.65 0.461 0.273 0.194 0.615 0.382 1.026 0.564 0.41 0.183 0.883 0.342 1.419 0.479 0.535 0.137 1.145 0.205 1.829 0.205 0.866 0 1.686-0.148 2.462-0.445 0.774-0.295 1.447-0.729 2.017-1.299 0.569-0.569 1.02-1.27 1.35-2.103 0.331-0.831 0.496-1.7945 0.496-2.8887 0-0.9114-0.102-1.7893-0.308-2.6327-0.204-0.8431-0.53-1.584-0.974-2.2225-0.444-0.6378-1.02-1.1454-1.727-1.5215-0.706-0.3761-1.572-0.5641-2.598-0.5641-0.684 0-1.305 0.1026-1.864 0.3077-0.558 0.2051-1.054 0.4845-1.487 0.8377-0.433 0.3537-0.809 0.7639-1.128 1.231-0.32 0.4673-0.57 0.9518-0.753 1.4531-0.159 0.4102-0.268 0.9006-0.324 1.4702-0.057 0.5699-0.086 1.1513-0.086 1.7435v4.9243zm-1.504-9.6768v-1.1112-0.8205c0-0.2393-0.006-0.4669-0.017-0.6838-0.012-0.2165-0.029-0.4499-0.052-0.70098h1.437c0.022 0.25108 0.039 0.47328 0.051 0.66678 0.011 0.1939 0.022 0.3932 0.034 0.5983 0.011 0.2051 0.022 0.4391 0.034 0.7009 0.012 0.2624 0.017 0.576 0.017 0.9403 0.114-0.2052 0.296-0.4899 0.547-0.8549 0.251-0.3643 0.61-0.7291 1.077-1.094 0.467-0.3643 1.043-0.6839 1.727-0.95738 0.684-0.27349 1.505-0.41024 2.462-0.41024 1.208 0 2.256 0.21686 3.145 0.64952 0.889 0.4334 1.625 1.0258 2.206 1.7781 0.581 0.7521 1.014 1.6358 1.299 2.6497 0.285 1.0145 0.427 2.1146 0.427 3.2995 0 1.2307-0.199 2.3477-0.598 3.3507s-0.957 1.864-1.675 2.581c-0.718 0.718-1.562 1.271-2.53 1.659-0.97 0.387-2.024 0.581-3.163 0.581-1.117 0-2.075-0.154-2.872-0.461-0.798-0.308-1.482-0.621-2.052-0.941v7.83h-1.504v-19.25z"/>
    <g id="Group-15" transform="translate(0 .34532)">
     <mask id="mask-7" fill="white">
      <use xlink:href="#path-6"/>
     </mask>
     <path id="Fill-13" fill="#fff" mask="url(#mask-7)" d="m12.89 2.2491c-0.342-0.1367-0.718-0.2505-1.128-0.3418-0.365-0.0909-0.804-0.1763-1.317-0.2564-0.5124-0.0796-1.0996-0.1197-1.7604-0.1197-0.9574 0-1.8582 0.1537-2.7011 0.4615-0.8435 0.3077-1.59 0.7582-2.2396 1.3506-0.6496 0.5929-1.1625 1.3281-1.5386 2.2052-0.3761 0.8778-0.5641 1.8753-0.5641 2.9919 0 0.8889 0.1026 1.7326 0.3077 2.5296 0.2051 0.799 0.5301 1.505 0.9743 2.12 0.4446 0.616 1.0199 1.106 1.7267 1.471 0.7063 0.365 1.5729 0.547 2.5987 0.547 1.0028 0 1.8573-0.188 2.5642-0.564 0.7062-0.377 1.2872-0.832 1.7442-1.368 0.455-0.535 0.791-1.094 1.008-1.676 0.217-0.581 0.325-1.065 0.325-1.453v-7.8979zm-10.702 18.258c0.3643 0.296 0.9345 0.621 1.7095 0.975 0.7748 0.353 1.8004 0.53 3.0774 0.53 1.1394 0 2.0856-0.154 2.8377-0.462 0.7522-0.308 1.3562-0.73 1.8122-1.265 0.456-0.536 0.775-1.168 0.957-1.898 0.183-0.729 0.274-1.527 0.274-2.393v-2.393c-0.365 0.593-0.832 1.106-1.402 1.538-0.479 0.388-1.077 0.736-1.7951 1.043-0.7179 0.308-1.5784 0.462-2.5812 0.462-1.2087 0-2.2567-0.211-3.1458-0.633-0.8888-0.421-1.624-0.997-2.2052-1.726-0.5812-0.73-1.0146-1.59-1.2993-2.582-0.28523-0.992-0.42733-2.0569-0.42733-3.1968-9.35e-7 -1.2763 0.22204-2.433 0.66665-3.4705 0.44438-1.037 1.06-1.92 1.8463-2.6498 0.7865-0.7293 1.7095-1.2934 2.7697-1.6925 1.0599-0.39846 2.2052-0.5984 3.4361-0.5984 1.1394-0.000001 2.2162 0.11447 3.2312 0.34204 1.014 0.22809 1.829 0.47862 2.445 0.75216v14.702c0 1.163-0.137 2.217-0.411 3.163-0.273 0.946-0.712 1.744-1.316 2.394-0.604 0.649-1.379 1.15-2.325 1.504-0.9462 0.353-2.0916 0.53-3.4363 0.53-0.7523 0-1.4362-0.063-2.0516-0.188-0.6155-0.126-1.1513-0.285-1.6069-0.479-0.4562-0.194-0.8495-0.393-1.1796-0.598-0.3307-0.205-0.5873-0.388-0.7694-0.547l0.889-1.163z"/>
    </g>
    <path id="Fill-16" fill="#fff" d="m30.011 0.85072h1.539v8.7188c0 1.1625 0.097 2.1315 0.291 2.9065 0.193 0.775 0.484 1.39 0.872 1.846 0.387 0.456 0.866 0.775 1.436 0.957 0.569 0.183 1.231 0.274 1.983 0.274 0.98 0 1.834-0.205 2.564-0.615 0.729-0.411 1.328-0.935 1.795-1.573s0.815-1.345 1.043-2.12 0.342-1.5388 0.342-2.2909v-8.1034l1.607 0.00002v15.728h-1.436c-0.023-0.251-0.04-0.479-0.051-0.684-0.012-0.205-0.023-0.428-0.035-0.667-0.011-0.239-0.017-0.507-0.017-0.803v-1.129c-0.182 0.342-0.433 0.73-0.752 1.163-0.32 0.433-0.718 0.838-1.197 1.214-0.478 0.376-1.054 0.689-1.726 0.94-0.673 0.251-1.453 0.376-2.342 0.376-1.117 0-2.052-0.16-2.804-0.479-0.752-0.318-1.362-0.78-1.829-1.384-0.468-0.604-0.798-1.328-0.992-2.172-0.194-0.842-0.291-1.8-0.291-2.872v-9.2313z"/>
    <path id="Fill-18" fill="#fff" d="m72.529 15.587c0.912 0 1.766-0.182 2.565-0.547 0.797-0.364 1.487-0.855 2.068-1.47 0.581-0.616 1.037-1.339 1.368-2.171 0.33-0.832 0.496-1.7271 0.496-2.6843 0-0.9115-0.171-1.7832-0.513-2.6156-0.342-0.8319-0.804-1.567-1.385-2.2053-0.581-0.638-1.271-1.1395-2.069-1.5046-0.798-0.3643-1.641-0.5469-2.53-0.5469-0.935 0-1.795 0.1826-2.581 0.5469-0.787 0.3651-1.47 0.8549-2.052 1.4704-0.581 0.6154-1.037 1.3392-1.367 2.1711-0.331 0.8324-0.496 1.7266-0.496 2.684 0 0.935 0.171 1.8123 0.513 2.6323 0.342 0.821 0.803 1.551 1.385 2.189 0.581 0.638 1.27 1.14 2.068 1.504 0.798 0.365 1.641 0.547 2.53 0.547m0 1.402c-1.117 0-2.165-0.217-3.145-0.65-0.981-0.432-1.841-1.025-2.582-1.777-0.741-0.753-1.322-1.63-1.744-2.633-0.421-1.003-0.632-2.0742-0.632-3.2143 0-1.1394 0.211-2.2106 0.632-3.2139 0.422-1.0028 1.003-1.8807 1.744-2.6328 0.741-0.7523 1.601-1.3447 2.582-1.7779 0.98-0.43283 2.028-0.64969 3.145-0.64969s2.166 0.21686 3.146 0.64969c0.98 0.4332 1.84 1.0256 2.581 1.7779 0.741 0.7521 1.322 1.63 1.744 2.6328 0.422 1.0033 0.633 2.0745 0.633 3.2139 0 1.1401-0.211 2.2113-0.633 3.2143s-1.003 1.88-1.744 2.633c-0.741 0.752-1.601 1.345-2.581 1.777-0.98 0.433-2.029 0.65-3.146 0.65"/>
    <path id="Fill-20" fill="#fff" d="m25.943 0.73108c-0.844 0-1.585 0.07425-2.223 0.32482-0.638 0.251-1.196 0.5589-1.675 0.9232-0.478 0.3648-0.872 0.758-1.179 1.1796-0.308 0.422-0.553 0.8034-0.736 1.1453v-1.1282c0-0.3189-0.005-0.6097-0.017-0.8719-0.011-0.2618-0.023-0.5071-0.034-0.7351-0.012-0.2277-0.029-0.467-0.051-0.71806h-1.436c0.022 0.25106 0.039 0.48446 0.051 0.70086 0.011 0.217 0.017 0.4446 0.017 0.6839v0.8205 1.1112 12.412h1.539v-8.0351c0-0.7748 0.131-1.544 0.393-2.308 0.001-0.0033 0.002-0.0064 0.003-0.0095 0.427-1.0943 1.111-1.9689 1.55-2.4578 0.01-0.0113 1.219-1.315 2.927-1.5193 0.069-0.0074 0.138-0.0131 0.208-0.018 0.049-0.0031 0.098-0.0058 0.147-0.007 0.069-0.0028 0.138-0.0059 0.208-0.0059 0.182 0 0.382 0.0117 0.599 0.0342 0.216 0.0229 0.404 0.0404 0.564 0.1088v-1.5334c-0.26-0.06204-0.543-0.09692-0.855-0.09692"/>
   </g>
  </g>
 </g>
</svg>
