<?xml version="1.0" encoding="utf-8"?>
<!-- Generator: Adobe Illustrator 16.0.0, SVG Export Plug-In . SVG Version: 6.00 Build 0)  -->
<!DOCTYPE svg PUBLIC "-//W3C//DTD SVG 1.1//EN" "http://www.w3.org/Graphics/SVG/1.1/DTD/svg11.dtd">
<svg version="1.1" id="Layer_1" xmlns="http://www.w3.org/2000/svg" xmlns:xlink="http://www.w3.org/1999/xlink" x="0px" y="0px"
	 width="128px" height="128px" viewBox="0 0 128 128" enable-background="new 0 0 128 128" xml:space="preserve">
<path id="Fill-8" fill="#19A5BE" d="M23.617,79.353c0.681,4.913-2.06,9.579-4.551,13.583c-2.391,3.836-5.184,8.313-4.996,13.079
	c0.298,7.531,5.89,8.678,8.375,8.678c0.174,0,0.33-0.011,0.472-0.016c6.695-0.44,18.594-10.519,27.872-12.674
	c-0.381-6.664-1.356-12.721-3.442-16.395C43.341,78.572,32.681,75.42,21.29,73.176C22.43,75.059,23.303,77.075,23.617,79.353z"/>
<path id="Fill-10" fill="#F75A10" d="M72.637,59.902c-7.06,15.69,10.366,34.973,28.052,55.419c0.238-2.739,0.196-5.397-0.678-8.136
	c-1.063-3.337-2.781-6.351-4.379-9.425c-1.607-3.11-3.157-6.258-4.331-9.567c-1.136-3.203-1.906-6.578-1.885-10.006
	c0.026-3.307,0.864-6.48,2.278-9.442c4.744-9.949,14.276-16.175,20.151-25.288c0.199-0.312,0.771-2.084,0.964-2.401
	C99.869,41.056,79.597,44.448,72.637,59.902z"/>
<g id="Group-14">
	<g id="Clip-13">
	</g>
	<defs>
		<filter id="Adobe_OpacityMaskFilter" filterUnits="userSpaceOnUse" x="10.851" y="0" width="106.297" height="128">
			<feColorMatrix  type="matrix" values="1 0 0 0 0  0 1 0 0 0  0 0 1 0 0  0 0 0 1 0"/>
		</filter>
	</defs>
	<mask maskUnits="userSpaceOnUse" x="10.851" y="0" width="106.297" height="128" id="mask-4_1_">
		<g filter="url(#Adobe_OpacityMaskFilter)">
			<polygon id="path-3_1_" fill="#FFFFFF" points="10.851,0 117.151,0 117.151,128 10.851,128 			"/>
		</g>
	</mask>
	<path id="Fill-12" mask="url(#mask-4_1_)" fill="#177CA8" d="M114.376,10.852c-2.121-4.635-5.759-8.432-10.668-10.004
		C101.886,0.266,100.008,0,98.13,0c-3.147,0-6.305,0.745-9.248,1.976c-8.77,3.674-13.873,10.865-17.264,19.14
		c-7.533,18.386-6.606,42.109-18.656,44.421c-0.828,0.157-1.627,0.23-2.399,0.23c-7.469,0-12.498-6.938-17.609-11.516
		c-3.461-3.109-7.853-6.029-12.57-6.435c-0.319-0.027-0.638-0.042-0.952-0.042c-3.827,0-7.142,2.029-8.285,6.015
		c-0.292,1.017-0.385,2.448-0.2,3.514c0.195,1.118,0.651,2.235,1.177,3.236c1.3,2.473,3.072,4.672,4.804,6.849
		c1.493,1.867,3.041,3.744,4.276,5.779c11.381,2.244,22.034,5.399,26.035,12.438c2.084,3.672,3.06,9.73,3.44,16.393
		c1.113-0.257,2.189-0.398,3.21-0.398c1.097,0,2.133,0.162,3.093,0.529c6.728,2.582,16.697,17.974,19.3,21.017
		C78.13,125.303,81.71,128,86.253,128c3.04,0,6.512-1.199,10.188-4.577c2.721-2.49,4.046-5.675,4.347-9.05
		C82.917,94.135,66.776,76.876,73.909,61.341c7.033-15.297,23.98-16.571,38.372-19.241c0.508-0.822,0.979-1.667,1.408-2.531
		c2.763-5.551,3.915-12.275,3.297-18.701C116.651,17.36,115.79,13.945,114.376,10.852z"/>
</g>
</svg>
